<?xml version="1.0" encoding="UTF-8"?>
<svg id="uuid-6f2f0064-aaa6-43d5-8168-6c3b5210dc7a" data-name="Layer 2" xmlns="http://www.w3.org/2000/svg" viewBox="0 0 809.67 462.58">
  <defs>
    <style>
      .uuid-2740dc22-436f-4a17-9cbe-19f966692978 {
        fill: #ffb6b6;
      }

      .uuid-7412b3e7-4627-49ed-b4d1-4363cd21c330 {
        fill: #f0f0f0;
      }

      .uuid-b766dfef-fe4c-4a1c-8099-10a00a211e90 {
        fill: #2f2e41;
      }

      .uuid-5a0df339-dfe3-44ff-b897-cc23736ee7e9 {
        fill: #fff;
      }

      .uuid-e3a535e3-e9f4-4f6c-a0b1-7136f3aa6747 {
        fill: #cacaca;
      }

      .uuid-78b91715-4325-4334-998d-cbd6e31e5af2 {
        fill: #3f3d56;
      }

      .uuid-f05cddc3-ce93-4aa4-b6dc-fcdc477f83f8 {
        fill: #e6e6e6;
      }

      .uuid-489e9f98-79ee-4c21-96f5-79cccc78bc36 {
        fill: #6c63ff;
      }

      .uuid-f204aec6-565e-4ab0-a266-1df108e2e075 {
        fill: #e4e4e4;
      }

      .uuid-42ae5000-3b10-4c8b-90f8-521b21eef38e {
        fill: #ffb8b8;
      }

      .uuid-f9c8de28-4877-4c05-8c43-351a631dc99a {
        fill: #9e616a;
      }

      .uuid-ef3414b1-6acf-49a4-8db4-d3fcc024e0bb {
        fill: #ccc;
      }

      .uuid-b0025df1-7e52-4625-9dff-022f5f995cbf {
        fill: #f2f2f2;
      }
    </style>
  </defs>
  <g id="uuid-efe8168a-626a-4a54-8f4b-5fdaa7e48a73" data-name="Layer 1">
    <path class="uuid-7412b3e7-4627-49ed-b4d1-4363cd21c330" d="M133.08,210.33V80.33c0-3.87,3.13-7,7-7s7,3.13,7,7V210.33c0,3.87-3.13,7-7,7s-7-3.13-7-7Z"/>
    <path class="uuid-7412b3e7-4627-49ed-b4d1-4363cd21c330" d="M116.33,210.33V80.33c0-3.87,3.13-7,7-7s7,3.13,7,7V210.33c0,3.87-3.13,7-7,7s-7-3.13-7-7Z"/>
    <path class="uuid-7412b3e7-4627-49ed-b4d1-4363cd21c330" d="M99.58,210.33V80.33c0-3.87,3.13-7,7-7s7,3.13,7,7V210.33c0,3.87-3.13,7-7,7s-7-3.13-7-7Z"/>
    <path class="uuid-f05cddc3-ce93-4aa4-b6dc-fcdc477f83f8" d="M731.99,417.96c-2.82,0-5.62-.48-8.27-1.44l-.41-.15,.19-.91c-4.75-9.6-3.09-22.75,4.25-33.57,6.68-9.83,16.83-16.98,25.79-23.28,3.15-2.21,7.49-1.46,9.71,1.69,1.09,1.55,1.5,3.48,1.14,5.34l-3.2,16.43c-2.31,11.86-5.06,23.08-13.22,30.07-4.48,3.75-10.13,5.8-15.98,5.8Z"/>
    <path class="uuid-f05cddc3-ce93-4aa4-b6dc-fcdc477f83f8" d="M752.96,446.36c-6.3-.04-12.16-3.26-15.56-8.57l-.23-.36,.55-.49c1.43-7.82,8.17-14.78,17.22-17.78,8.23-2.72,17.31-2.28,25.31-1.89h0c2.95,.14,5.23,2.65,5.08,5.6-.07,1.42-.7,2.76-1.76,3.71l-9.01,8.13c-6.55,5.91-13.07,11.24-20.95,11.62-.22,0-.44,.01-.66,.01Z"/>
    <path class="uuid-b0025df1-7e52-4625-9dff-022f5f995cbf" d="M725.01,455.05c-1.33-9.91-2.7-19.94-1.77-29.95,.83-8.89,3.48-17.58,8.88-24.7,2.85-3.76,6.34-6.99,10.31-9.55,1.03-.67,1.98,1.01,.95,1.67-6.88,4.46-12.17,10.99-15.11,18.64-3.29,8.55-3.82,17.88-3.25,26.97,.34,5.5,1.07,10.96,1.8,16.41,.12,.51-.16,1.02-.66,1.19-.51,.14-1.03-.16-1.16-.67,0,0,0,0,0,0h0Z"/>
    <path class="uuid-b0025df1-7e52-4625-9dff-022f5f995cbf" d="M721.25,460.75c6.4-11.58,13.83-24.45,27.1-28.57,3.68-1.14,7.56-1.55,11.4-1.2,1.21,.11,.91,2.01-.3,1.91-6.45-.54-12.89,1.2-18.19,4.92-5.13,3.57-9.12,8.53-12.5,13.79-2.07,3.22-3.92,6.58-5.78,9.94-.59,1.07-2.33,.3-1.73-.79h0Z"/>
    <path class="uuid-e3a535e3-e9f4-4f6c-a0b1-7136f3aa6747" d="M718.37,460.58l6.46,.15-38.98-208.24-6.46,1.22,10.18,54.02h-32.79l10.18-54.02-6.46-1.22-38.65,208.24,6.14-.15,20.32-107.85h49.75l20.32,107.85Zm-68.57-115.85l5.46-29h35.81l5.46,29h-46.74Z"/>
    <path class="uuid-7412b3e7-4627-49ed-b4d1-4363cd21c330" d="M436.08,213.64v-68.39c0-2.03,3.14-3.68,7-3.68s7,1.65,7,3.68v68.39c0,2.03-3.14,3.68-7,3.68s-7-1.65-7-3.68Z"/>
    <path class="uuid-7412b3e7-4627-49ed-b4d1-4363cd21c330" d="M419.33,213.64v-68.39c0-2.03,3.14-3.68,7-3.68s7,1.65,7,3.68v68.39c0,2.03-3.14,3.68-7,3.68s-7-1.65-7-3.68Z"/>
    <path class="uuid-7412b3e7-4627-49ed-b4d1-4363cd21c330" d="M402.58,213.64v-68.39c0-2.03,3.14-3.68,7-3.68s7,1.65,7,3.68v68.39c0,2.03-3.14,3.68-7,3.68s-7-1.65-7-3.68Z"/>
    <path class="uuid-ef3414b1-6acf-49a4-8db4-d3fcc024e0bb" d="M543.5,163.35c-.06-.42-.3-.79-.66-1.03l-52.77-34.84c.8-.33,1.46-.91,1.89-1.66h0c1.1-1.91,.44-4.36-1.46-5.46l-4.33-2.5c-1.91-1.1-4.36-.44-5.46,1.46-.29,.5-.46,1.06-.51,1.64l-38.09-25.15c-2.59-6.27-7.81-11.08-14.27-13.16v-11.09h-14v11.09c-9.53,3.05-16,11.91-16,21.91v3h14c0,4.97,4.03,9,9,9s9-4.03,9-9h14v-3c0-1.44-.14-2.87-.4-4.29l96.37,63.62-40.03,48.67c-.31,0-.62,0-.93,0-3.19,0-6.29,.08-9.24,.21,.18-.49,.26-1.02,.23-1.54-.12-2.2-2-3.89-4.2-3.79l-4.99,.26c-2.2,.12-3.89,2-3.79,4.2,.04,.63,.22,1.23,.54,1.77-8.83,.94-14.55,2.23-14.55,2.89,0,1.08,15.36,.05,34.59,0,.27,.78,1.13,1.19,1.91,.91,.26-.09,.49-.25,.66-.46l.37-.45c19.17,.05,34.47,1.07,34.47,0,0-1.01-13.6-3.54-31.23-3.94l39.57-48.1c.27-.33,.39-.76,.32-1.18Z"/>
    <path class="uuid-f204aec6-565e-4ab0-a266-1df108e2e075" d="M544.94,461.08h-123.22c-5.18,0-9.39-4.21-9.39-9.39V249.47c0-4.63-3.76-8.39-8.39-8.39H115.72c-4.63,0-8.39,3.76-8.39,8.39v202.22c0,5.18-4.21,9.39-9.39,9.39h-4.22c-5.18,0-9.39-4.21-9.39-9.39V238.58c.01-12.42,10.08-22.49,22.5-22.5h425c12.42,.01,22.49,10.08,22.5,22.5v213.11c0,5.18-4.21,9.39-9.39,9.39Z"/>
    <rect class="uuid-5a0df339-dfe3-44ff-b897-cc23736ee7e9" x="412.83" y="268.58" width="141" height="6"/>
    <rect class="uuid-5a0df339-dfe3-44ff-b897-cc23736ee7e9" x="412.83" y="349.58" width="141" height="6"/>
    <path class="uuid-f05cddc3-ce93-4aa4-b6dc-fcdc477f83f8" d="M296.12,215.09l-4.05-1.71-2.78-20.32h-37.02l-3.01,20.23-3.63,1.81c-.43,.21-.6,.73-.38,1.16,.15,.29,.44,.48,.77,.48h49.77c.48,0,.86-.39,.86-.86,0-.35-.21-.66-.53-.79Z"/>
    <path class="uuid-ef3414b1-6acf-49a4-8db4-d3fcc024e0bb" d="M361.9,195.77H180.05c-1.99,0-3.59-1.62-3.59-3.6v-25.64h189.04v25.64c0,1.99-1.61,3.6-3.59,3.6Z"/>
    <path class="uuid-78b91715-4325-4334-998d-cbd6e31e5af2" d="M365.69,178.64H176.29V68.92c0-2.4,1.95-4.34,4.34-4.34h180.71c2.4,0,4.34,1.95,4.34,4.34v109.72Z"/>
    <path class="uuid-5a0df339-dfe3-44ff-b897-cc23736ee7e9" d="M354.38,170.68H187.6c-1.85,0-3.35-1.5-3.35-3.35V75.89c0-1.85,1.5-3.35,3.35-3.35h166.78c1.85,0,3.35,1.5,3.35,3.35v91.44c0,1.85-1.5,3.35-3.35,3.35Z"/>
    <path class="uuid-f9c8de28-4877-4c05-8c43-351a631dc99a" d="M541.33,83.04c6.03-.87,11.62,3.31,12.49,9.34,.09,.64,.13,1.29,.11,1.94l36.57,14.07-16.57,11.84-32.18-15.18c-6.09-.61-10.54-6.04-9.93-12.13,.51-5.1,4.45-9.18,9.52-9.88h0Z"/>
    <path class="uuid-f204aec6-565e-4ab0-a266-1df108e2e075" d="M680.17,76.13l6.19,11.25c-1.49,7.13-5.36,13.55-10.96,18.21-9.47,7.99-58.99,37.74-58.99,37.74l-62.52-31.39,10.94-14.53,49.08,16.45h0c18.21-17.19,40.18-29.9,64.16-37.09l2.1-.63Z"/>
    <ellipse class="uuid-e3a535e3-e9f4-4f6c-a0b1-7136f3aa6747" cx="668.67" cy="246.34" rx="48.79" ry="15.9"/>
    <polygon class="uuid-f9c8de28-4877-4c05-8c43-351a631dc99a" points="559.21 447.11 546.25 443.52 553.9 391.85 573.02 397.13 559.21 447.11"/>
    <path class="uuid-b766dfef-fe4c-4a1c-8099-10a00a211e90" d="M559.04,460.58l-41.78-11.55,.15-.53c2.48-8.98,11.77-14.25,20.75-11.77h0s25.52,7.05,25.52,7.05l-4.64,16.79Z"/>
    <polygon class="uuid-f9c8de28-4877-4c05-8c43-351a631dc99a" points="521.65 447.27 509.35 441.84 524.44 391.83 542.59 399.84 521.65 447.27"/>
    <path class="uuid-b766dfef-fe4c-4a1c-8099-10a00a211e90" d="M519.52,460.58l-39.65-17.51,.22-.5c3.76-8.52,13.72-12.38,22.25-8.62h0s24.22,10.69,24.22,10.69l-7.04,15.93Z"/>
    <path class="uuid-b766dfef-fe4c-4a1c-8099-10a00a211e90" d="M706.64,207.47s6.52,20.19-33.47,45.73l-51.5,51.32-53.51,128.01-31.77-14.24,6.23-16.63,4.18-11.16,2.14-5.71,2.29-6.12,34.01-90.79,28.57-50.02,.83-27.14,7.03-19.13,50.98-18.09,33.99,33.99Z"/>
    <path class="uuid-b766dfef-fe4c-4a1c-8099-10a00a211e90" d="M680.64,208.47s6.52,20.19-33.47,45.73l-51.5,51.32-53.51,128.01-31.77-14.24,6.23-16.63,4.18-11.16,2.14-5.71,2.29-6.12,34.01-90.79,9.57-16.75c12.62-22.1,27.95-42.53,45.65-60.82l9.38-9.69,1-15,21.82-12.13,33.99,33.99Z"/>
    <path class="uuid-f204aec6-565e-4ab0-a266-1df108e2e075" d="M649.83,109.61l16-34,27.92-3.81s21.8,27.78,16.08,66.81c-2.15,14.64-3.9,29.21-4,42-.03,3.4,2.95,4.92,3,8,.05,3.02-5.64,7.95-4,10,2.35,2.83,3.75,6.33,4,10-1.98,4.72-61.96-20.83-87.16-17.04l28.16-81.96Z"/>
    <circle class="uuid-f9c8de28-4877-4c05-8c43-351a631dc99a" cx="667.78" cy="41.78" r="25.25"/>
    <path class="uuid-b766dfef-fe4c-4a1c-8099-10a00a211e90" d="M683.93,32.71c-.05,.66-.12,1.54-.19,2.54-.08,2.73,.69,5.41,2.2,7.68,1.41,2.39-.27,16.82-.27,16.82,41.37-28.84,8.68-57.81-4.1-55.23,.27-3.67-10.16-2.21-10.16-2.21-3.97-6.19-12.68,2.03-12.68,2.03l1.68-2.83c-6.76,1.72-13.44,22.62-13.44,22.62,2.29,9.01,37.24,4.92,36.98,8.59Z"/>
    <path class="uuid-ef3414b1-6acf-49a4-8db4-d3fcc024e0bb" d="M523.45,122.99c14.22-18.91,25.45-39.88,33.32-62.19,.94-2.76-.25-5.79-2.81-7.17l-48.65-26.07c-1.59-.86-3.5-.94-5.16-.21-1.69,.73-2.95,2.21-3.41,3.99-5.66,21.5-16.3,41.36-31.07,57.98-1.23,1.37-1.76,3.23-1.44,5.05,.31,1.79,1.43,3.33,3.03,4.18l48.65,26.07c2.57,1.37,5.75,.68,7.53-1.63Z"/>
    <path class="uuid-5a0df339-dfe3-44ff-b897-cc23736ee7e9" d="M520.13,120.49c-.54,.67-1.48,.87-2.25,.46l-48.65-26.07c-.48-.25-.81-.71-.9-1.24-.1-.56,.06-1.14,.45-1.56,15.2-17.11,26.15-37.56,31.98-59.69,.14-.55,.53-1.01,1.05-1.24,.49-.22,1.06-.2,1.54,.06l48.64,26.07c.76,.41,1.12,1.3,.86,2.13-7.73,21.91-18.77,42.51-32.73,61.08Z"/>
    <path class="uuid-489e9f98-79ee-4c21-96f5-79cccc78bc36" d="M503.11,55.99l33.55,19.67c3.34,1.96,6.36-3.23,3.03-5.18l-33.55-19.67c-3.34-1.96-6.36,3.23-3.03,5.18h0Z"/>
    <path class="uuid-489e9f98-79ee-4c21-96f5-79cccc78bc36" d="M497.11,66.99l33.55,19.67c3.34,1.96,6.36-3.23,3.03-5.18l-33.55-19.67c-3.34-1.96-6.36,3.23-3.03,5.18h0Z"/>
    <path class="uuid-489e9f98-79ee-4c21-96f5-79cccc78bc36" d="M490.11,78.99l33.55,19.67c3.34,1.96,6.36-3.23,3.03-5.18l-33.55-19.67c-3.34-1.96-6.36,3.23-3.03,5.18h0Z"/>
    <path class="uuid-489e9f98-79ee-4c21-96f5-79cccc78bc36" d="M483.11,88.99l33.55,19.67c3.34,1.96,6.36-3.23,3.03-5.18l-33.55-19.67c-3.34-1.96-6.36,3.23-3.03,5.18h0Z"/>
    <path class="uuid-489e9f98-79ee-4c21-96f5-79cccc78bc36" d="M636.06,204.66l12.6,28.33c.62,1.38,.5,2.97-.32,4.24-.97,1.53-2.76,2.32-4.54,2.02-.3-.05-.59-.12-.87-.23-1.11-.43-2.01-1.28-2.5-2.37l-12.6-28.33c-1.01-2.27,0-4.93,2.28-5.94,2.27-1.01,4.93,0,5.94,2.28,0,0,0,0,0,.01h0Z"/>
    <path class="uuid-78b91715-4325-4334-998d-cbd6e31e5af2" d="M647.64,230.71l2.52,5.72,1.29,8.1c.21,1.34-.7,2.59-2.03,2.81-.87,.14-1.74-.2-2.3-.88l-5.22-6.5-2.49-5.59,8.22-3.66Z"/>
    <path class="uuid-78b91715-4325-4334-998d-cbd6e31e5af2" d="M625.04,196.78l1.81,11.34c.21,1.34,1.47,2.25,2.81,2.04,.21-.03,.42-.09,.61-.18l1.79-.8,3.45,7.77c.23,.5,.82,.73,1.32,.51,.5-.22,.73-.81,.51-1.32l-3.45-7.77,1.79-.8c1.24-.55,1.79-2,1.25-3.23-.09-.2-.2-.38-.34-.55l-7.21-8.94c-.85-1.05-2.39-1.22-3.45-.37-.68,.55-1.02,1.43-.88,2.29Z"/>
    <path class="uuid-f9c8de28-4877-4c05-8c43-351a631dc99a" d="M630.27,217.25c1.07-5.99,6.8-9.98,12.79-8.91,.64,.11,1.27,.28,1.88,.51l24.87-30.28,6.02,19.45-24.54,25.77c-2.49,5.59-9.05,8.1-14.64,5.61-4.68-2.09-7.32-7.11-6.38-12.15h0Z"/>
    <path class="uuid-f204aec6-565e-4ab0-a266-1df108e2e075" d="M661.57,215.28l-10.95-15.82,31.1-41.47-16.02-34.33,1.17-40.84,13.24-2.45,.16,.08c6.44,3.7,11.41,9.5,14.1,16.42,3.3,8.26,10.68,39.25,14.78,56.99,1.64,6.99-.47,14.33-5.56,19.39l-42.01,42.01Z"/>
    <path class="uuid-2740dc22-436f-4a17-9cbe-19f966692978" d="M353.21,138.85c-.09,.77-.12,1.54-.09,2.32l-56.07,40.79-15.4-6.82-13.33,21.9,26.1,14.72c4.33,2.44,9.75,1.73,13.31-1.74l56.44-55.12c7.86,2,15.84-2.75,17.84-10.61,2-7.86-2.75-15.84-10.61-17.84-7.86-2-15.84,2.75-17.84,10.61-.15,.59-.26,1.19-.34,1.79h0Z"/>
    <path class="uuid-489e9f98-79ee-4c21-96f5-79cccc78bc36" d="M295.23,183.45l-16.35,27.25c-1.79,2.98-5.65,3.95-8.63,2.16-.26-.16-.52-.34-.76-.53l-24.48-20.11c-8.24-5.02-10.86-15.77-5.84-24.01,4.99-8.21,15.68-10.84,23.91-5.9l29.17,12.1c3.21,1.33,4.73,5.01,3.4,8.22-.12,.28-.26,.56-.42,.83h0Z"/>
    <rect class="uuid-e3a535e3-e9f4-4f6c-a0b1-7136f3aa6747" x="225.17" y="367.17" width="32.05" height="53.12"/>
    <rect class="uuid-e3a535e3-e9f4-4f6c-a0b1-7136f3aa6747" x="288.36" y="377.92" width="7.33" height="92.96" transform="translate(-223.13 427.74) rotate(-55.84)"/>
    <rect class="uuid-e3a535e3-e9f4-4f6c-a0b1-7136f3aa6747" x="143.89" y="420.74" width="92.96" height="7.33" transform="translate(-205.46 180.11) rotate(-34.16)"/>
    <circle class="uuid-e3a535e3-e9f4-4f6c-a0b1-7136f3aa6747" cx="330.48" cy="450.5" r="10.07"/>
    <circle class="uuid-e3a535e3-e9f4-4f6c-a0b1-7136f3aa6747" cx="240.74" cy="450.5" r="10.07"/>
    <circle class="uuid-e3a535e3-e9f4-4f6c-a0b1-7136f3aa6747" cx="151.91" cy="450.5" r="10.07"/>
    <rect class="uuid-e3a535e3-e9f4-4f6c-a0b1-7136f3aa6747" x="237.07" y="398.3" width="7.33" height="52.2"/>
    <rect class="uuid-e3a535e3-e9f4-4f6c-a0b1-7136f3aa6747" x="234.33" y="320.46" width="13.74" height="70.52"/>
    <path class="uuid-78b91715-4325-4334-998d-cbd6e31e5af2" d="M201.82,331.45v-16.48c0-6.32,5.13-11.44,11.45-11.45h61.36c6.32,0,11.44,5.13,11.45,11.45v16.48c0,6.32-5.13,11.44-11.45,11.45h-61.36c-6.32,0-11.44-5.13-11.45-11.45Z"/>
    <polygon class="uuid-42ae5000-3b10-4c8b-90f8-521b21eef38e" points="312.63 444.13 329.6 444.13 337.68 400.12 312.63 400.12 312.63 444.13"/>
    <path class="uuid-b766dfef-fe4c-4a1c-8099-10a00a211e90" d="M308.31,460.58h54.71v-.69c0-11.76-9.53-21.3-21.3-21.3h-33.42s0,21.99,0,21.99Z"/>
    <path class="uuid-b766dfef-fe4c-4a1c-8099-10a00a211e90" d="M338.01,416.84l33.83-75.86c5.86-13.26,.54-28.79-12.21-35.69l-73.38-39.35-33.48-2.85-30.89-2.81-.22,.38c-.28,.48-6.93,11.95-2.44,24.53,3.4,9.54,12.26,16.99,26.32,22.15,32.82,12.04,70.74,22.32,85.52,26.18,1.32,.34,2.43,1.22,3.06,2.44,.63,1.2,.73,2.6,.27,3.87l-31.43,70.61c-1.18,3.23,.47,6.81,3.7,7.99,.51,.19,1.03,.3,1.57,.35l23.48,1.71c.2,.02,.4,.03,.6,.03,2.46,0,4.68-1.45,5.68-3.69Z"/>
    <polygon class="uuid-42ae5000-3b10-4c8b-90f8-521b21eef38e" points="301.56 444.13 318.53 444.13 326.6 400.12 301.56 400.12 301.56 444.13"/>
    <path class="uuid-b766dfef-fe4c-4a1c-8099-10a00a211e90" d="M297.23,460.58h54.72v-.69c0-11.76-9.53-21.3-21.3-21.3h-33.42s0,21.99,0,21.99Z"/>
    <path class="uuid-b766dfef-fe4c-4a1c-8099-10a00a211e90" d="M325.56,420.99l33.83-75.86c5.86-13.26,.54-28.79-12.21-35.69l-73.38-39.35-33.48-2.85-24.19-2.1v-.33c-.28,.48-6.92,11.95-2.43,24.53,3.4,9.54,5.34,16.99,19.4,22.15,32.82,12.04,70.74,22.32,85.52,26.18,1.32,.34,2.43,1.22,3.06,2.44,.63,1.2,.73,2.6,.27,3.87l-31.43,70.61c-1.18,3.23,.47,6.81,3.7,7.99,.51,.19,1.03,.3,1.57,.35l23.48,1.71c.2,.02,.4,.03,.6,.03,2.46,0,4.68-1.45,5.68-3.69Z"/>
    <circle class="uuid-42ae5000-3b10-4c8b-90f8-521b21eef38e" cx="271.26" cy="86.37" r="34"/>
    <path class="uuid-ef3414b1-6acf-49a4-8db4-d3fcc024e0bb" d="M388.45,216.99c14.22-18.91,25.45-39.88,33.32-62.19,.94-2.76-.25-5.79-2.81-7.17l-48.65-26.07c-1.59-.86-3.5-.94-5.16-.21-1.69,.73-2.95,2.21-3.41,3.99-5.66,21.5-16.3,41.36-31.07,57.98-1.23,1.37-1.76,3.23-1.44,5.05,.31,1.79,1.43,3.33,3.03,4.18l48.65,26.07c2.57,1.37,5.75,.68,7.53-1.63Z"/>
    <path class="uuid-5a0df339-dfe3-44ff-b897-cc23736ee7e9" d="M385.13,214.49c-.54,.67-1.48,.87-2.25,.46l-48.65-26.07c-.48-.25-.81-.71-.9-1.24-.1-.56,.06-1.14,.45-1.56,15.2-17.11,26.15-37.56,31.98-59.69,.14-.55,.53-1.01,1.05-1.24,.49-.22,1.06-.2,1.54,.06l48.64,26.07c.76,.41,1.12,1.3,.86,2.13-7.73,21.91-18.77,42.51-32.73,61.08Z"/>
    <path class="uuid-ef3414b1-6acf-49a4-8db4-d3fcc024e0bb" d="M368.11,149.99l33.55,19.67c3.34,1.96,6.36-3.23,3.03-5.18l-33.55-19.67c-3.34-1.96-6.36,3.23-3.03,5.18h0Z"/>
    <path class="uuid-ef3414b1-6acf-49a4-8db4-d3fcc024e0bb" d="M362.11,160.99l33.55,19.67c3.34,1.96,6.36-3.23,3.03-5.18l-33.55-19.67c-3.34-1.96-6.36,3.23-3.03,5.18h0Z"/>
    <path class="uuid-ef3414b1-6acf-49a4-8db4-d3fcc024e0bb" d="M357.39,171.94l30.51,18.11c3.04,1.8,6.28-1.92,3.25-3.72l-30.51-18.11c-3.04-1.8-6.28,1.92-3.25,3.72Z"/>
    <path class="uuid-ef3414b1-6acf-49a4-8db4-d3fcc024e0bb" d="M348.11,182.99l33.55,19.67c3.34,1.96,6.36-3.23,3.03-5.18l-33.55-19.67c-3.34-1.96-6.36,3.23-3.03,5.18h0Z"/>
    <path class="uuid-489e9f98-79ee-4c21-96f5-79cccc78bc36" d="M290.87,268.69l-67.27-.4-.02-.48c-1.28-33.75,2.84-64.33,12.61-93.47,.14-1.09,.29-2.26,.43-3.4,1.67-13.04,2.99-23.39,15.39-27.25-1.03-1.37-1.64-3.02-1.75-4.73-.16-2.3,.61-4.57,2.14-6.3,1.46-1.67,3.54-2.68,5.75-2.81l23.95-.82c1.26,0,2.48,.41,3.48,1.18,3.77,2.8,4.94,7.91,2.78,12.08-.28,.56-.39,.82-.43,.93,.85,4.46,3.38,9.76,6.05,15.36,3.83,8.03,8.16,17.12,9.28,26.86,.6,5.26,.35,10.57-.74,15.75-.5,2.79-.61,5.63-.34,8.45,.22,4.18,.42,8.13-1.94,11.95-.6,1.04-1.29,2.14-2.1,3.36l-3.33,7.95-3.95,35.79Z"/>
    <path class="uuid-78b91715-4325-4334-998d-cbd6e31e5af2" d="M189.91,315.93V178.47c.01-9.33,7.57-16.88,16.9-16.9h4.67c9.33,.01,16.88,7.57,16.9,16.9v137.46c-.01,9.33-7.57,16.88-16.9,16.9h-4.67c-9.33-.01-16.88-7.57-16.9-16.9Z"/>
    <path class="uuid-2740dc22-436f-4a17-9cbe-19f966692978" d="M370.31,192.19c-.48,.6-.92,1.25-1.3,1.92l-69.16,5.05-9.49-13.92-22.88,11.57,14.4,26.28c2.39,4.36,7.37,6.62,12.22,5.55l77.03-17.03c5.62,5.84,14.91,6.02,20.75,.4,5.84-5.62,6.02-14.91,.4-20.75-5.62-5.84-14.91-6.02-20.75-.4-.44,.42-.85,.87-1.23,1.34Z"/>
    <path class="uuid-489e9f98-79ee-4c21-96f5-79cccc78bc36" d="M297.53,199.47l-28.27,14.51c-3.09,1.59-6.88,.37-8.47-2.72-.14-.27-.26-.56-.36-.85l-10.18-30c-4.35-8.57-.95-19.05,7.61-23.44-12.53,6.43,13.57-11.84,23.53,7.57l18.39,25.67c2.02,2.83,1.37,6.76-1.45,8.78-.25,.18-.51,.34-.79,.48h0Z"/>
    <path class="uuid-b766dfef-fe4c-4a1c-8099-10a00a211e90" d="M255.91,119.44c-2.05,0-4.3-.99-6.85-2.98-15.4-12.09-20.82-32.97-13.27-51.03,1.85-4.42,5.31-10.43,11.29-13.95,4.3-2.53,9.35-3.44,13.74-4.1,3.81-.57,7.66-1.02,11.45-1.35,4.53-.39,9.77-.65,14.55,1.17,3.5,1.33,6.48,3.68,9.36,5.95,1,.79,2.04,1.61,3.08,2.37,2.52,1.97,5.43,3.38,8.53,4.14,1.32,.27,2.47,1.11,3.13,2.29,.67,1.2,.8,2.63,.33,3.93-.45,1.26-.85,2.4-.03,3.63,.62,.88,1.63,1.4,2.71,1.38,.57,0,1.1,.27,1.42,.74,.32,.47,.39,1.06,.19,1.59l-.13,.34c.71,.07,1.35,.48,1.7,1.11,.53,.9,.36,2.06-.41,2.77-3.03,2.89-6.82,4.87-10.92,5.71-2.81,.55-5.69,.54-8.5-.02l-.45-.09,.06-.5c-11.34-4.05-21.58,2.82-27.42,10.67l-.84-.53c.29-.59,.33-1.28,.11-1.9-.24-.74-.76-1.36-1.46-1.72-1.42-.59-3.06-.26-4.14,.83-1.1,1.15-1.66,2.7-1.55,4.29,.15,1.66,.58,3.28,1.25,4.81,.27,.73,.56,1.48,.79,2.24,1.29,4.32,.95,8.96-.97,13.04-.88,1.86-2.48,4.23-5.08,4.97-.54,.15-1.1,.23-1.66,.23Z"/>
    <path class="uuid-e3a535e3-e9f4-4f6c-a0b1-7136f3aa6747" d="M808.48,462.58H1.18c-.66,0-1.19-.54-1.18-1.2,0-.65,.53-1.18,1.18-1.18H808.48c.66,0,1.19,.54,1.19,1.19,0,.65-.53,1.18-1.19,1.19Z"/>
  </g>
</svg>