<svg width="20" height="18" viewBox="0 0 20 18" fill="none" xmlns="http://www.w3.org/2000/svg">
<path opacity="0.5" d="M7.77778 18H12.2222C15.3433 18 16.9038 18 18.0248 17.2777C18.51 16.965 18.9267 16.5632 19.251 16.0953C20 15.0143 20 13.5095 20 10.4999C20 7.49027 19.9998 5.9857 19.2508 4.90473C18.9266 4.43676 18.5099 4.03497 18.0246 3.72228C16.9036 3 15.3431 3 12.2221 3H7.77761C4.65659 3 3.09607 3 1.97508 3.72228C1.48979 4.03497 1.07312 4.43676 0.748859 4.90473C-5.96046e-08 5.98547 -3.64041e-08 7.48961 0 10.4979L0 10.4999C0 13.5095 5.96046e-08 15.0143 0.749024 16.0953C1.07328 16.5632 1.48995 16.965 1.97524 17.2777C3.09624 18 4.65675 18 7.77778 18Z" fill="#247AFD"/>
<path fill-rule="evenodd" clip-rule="evenodd" d="M6 1C6 0.447715 6.41328 0 6.92308 0H13.0769C13.5867 0 14 0.447715 14 1C14 1.55228 13.5867 2 13.0769 2H6.92308C6.41328 2 6 1.55228 6 1Z" fill="#247AFD"/>
<path fill-rule="evenodd" clip-rule="evenodd" d="M15.2784 7.28601C15.2784 6.8422 15.6515 6.48242 16.1118 6.48242H16.6673C17.1276 6.48242 17.5007 6.8422 17.5007 7.28601C17.5007 7.72981 17.1276 8.08959 16.6673 8.08959H16.1118C15.6515 8.08959 15.2784 7.72981 15.2784 7.28601Z" fill="#FBF9F9"/>
<path fill-rule="evenodd" clip-rule="evenodd" d="M5.83398 10.5003C5.83398 8.28131 7.69946 6.48242 10.0007 6.48242C12.3018 6.48242 14.1673 8.28131 14.1673 10.5003C14.1673 12.7194 12.3018 14.5183 10.0007 14.5183C7.69946 14.5183 5.83398 12.7194 5.83398 10.5003ZM7.50065 10.5003C7.50065 9.16892 8.61994 8.08959 10.0007 8.08959C11.3814 8.08959 12.5007 9.16892 12.5007 10.5003C12.5007 11.8318 11.3814 12.9111 10.0007 12.9111C8.61994 12.9111 7.50065 11.8318 7.50065 10.5003Z" fill="#247AFD"/>
<path fill-rule="evenodd" clip-rule="evenodd" d="M16.1118 6.48242C15.6515 6.48242 15.2784 6.8422 15.2784 7.28601C15.2784 7.72981 15.6515 8.08959 16.1118 8.08959H16.6673C17.1276 8.08959 17.5007 7.72981 17.5007 7.28601C17.5007 6.8422 17.1276 6.48242 16.6673 6.48242H16.1118Z" fill="#247AFD"/>
</svg>
