<svg width="280" height="209" viewBox="0 0 280 209" fill="none" xmlns="http://www.w3.org/2000/svg">
<g clip-path="url(#clip0_3046_4833)">
<path d="M204.455 198.581H198.884L196.232 177.121H204.455V198.581Z" fill="#FFB8B8"/>
<path d="M207.396 208.222H203.4L202.687 204.455L200.861 208.222H190.264C189.756 208.222 189.261 208.06 188.852 207.759C188.443 207.459 188.141 207.035 187.99 206.551C187.839 206.067 187.846 205.547 188.012 205.067C188.178 204.588 188.492 204.174 188.91 203.885L197.373 198.049V194.24L206.273 194.771L207.396 208.222Z" fill="#2F2E43"/>
<path d="M237.554 191.56L233.083 194.88L218.133 179.239L224.731 174.338L237.554 191.56Z" fill="#FFB8B8"/>
<path d="M245.673 197.543L242.467 199.924L239.644 197.326L240.429 201.438L231.926 207.753C231.518 208.055 231.024 208.22 230.516 208.223C230.008 208.225 229.513 208.066 229.102 207.767C228.692 207.468 228.387 207.047 228.234 206.563C228.08 206.08 228.085 205.56 228.248 205.079L231.551 195.353L229.276 192.297L236.735 187.418L245.673 197.543Z" fill="#2F2E43"/>
<path d="M210.941 87.8545C210.941 87.8545 221.512 96.9751 216.635 122.976L210.68 148.452L230.099 180.624L223.907 188.147L198.663 153.324L189.515 131.894L186.948 93.7525L210.941 87.8545Z" fill="#2F2E43"/>
<path d="M194.558 138.001L193.922 147.834L195.868 189.739L205.023 188.147L206.773 158.311L194.558 138.001Z" fill="#2F2E43"/>
<path d="M77.0651 203.627L82.0474 203.627L84.4174 184.435L77.0645 184.435L77.0651 203.627Z" fill="#FFB6B6"/>
<path d="M75.7949 202.003L77.1973 202.003L82.6722 199.779L85.6067 202.002H85.6071C87.2654 202.002 88.8557 202.66 90.0283 203.831C91.2009 205.003 91.8598 206.591 91.8599 208.247V208.45L75.7952 208.45L75.7949 202.003Z" fill="#2F2E43"/>
<path d="M96.373 200.492L101.233 201.588L107.778 183.388L100.605 181.771L96.373 200.492Z" fill="#FFB6B6"/>
<path d="M95.4912 198.628L96.8591 198.936L102.69 197.971L105.062 200.786L105.062 200.786C106.68 201.151 108.086 202.142 108.972 203.543C109.857 204.943 110.149 206.637 109.784 208.253L109.74 208.45L94.0693 204.917L95.4912 198.628Z" fill="#2F2E43"/>
<path d="M70.7557 86.2974C68.4198 93.3332 68.6668 100.97 71.3172 109.167L72.4502 155.318C72.4502 155.318 70.7621 185.582 76.2092 196.232H84.109L88.0203 152.554L88.5115 123.237L105.448 147.97L94.6606 195.518L104.383 196.386L121.888 144.786L100.291 94.725L70.7557 86.2974Z" fill="#2F2E43"/>
<path d="M161.858 66.2563C167.901 60.8184 176.888 58.0841 184.427 61.1333C176.694 65.4213 170.728 72.3029 167.586 80.5605C166.386 83.7495 165.384 87.4213 162.432 89.1286C160.595 90.191 158.31 90.2429 156.25 89.7301C154.191 89.2172 152.303 88.1891 150.441 87.1713L149.911 87.1593C152.289 79.3911 155.816 71.6943 161.858 66.2563Z" fill="#E6E6E6"/>
<path d="M184.384 61.2985C177.707 62.1602 171.472 65.1012 166.564 69.7036C165.49 70.6756 164.576 71.8107 163.855 73.0671C163.193 74.3135 162.878 75.7143 162.941 77.1239C162.973 78.4393 163.159 79.7811 162.871 81.0816C162.714 81.7451 162.418 82.3679 162.003 82.9091C161.587 83.4503 161.062 83.8978 160.462 84.2221C158.986 85.069 157.294 85.3361 155.63 85.5397C153.783 85.7659 151.86 85.9715 150.261 87.0064C150.067 87.1318 149.884 86.8242 150.077 86.699C152.86 84.8985 156.38 85.5536 159.372 84.352C160.768 83.7913 162.003 82.8071 162.44 81.319C162.823 80.0177 162.632 78.6339 162.588 77.3022C162.506 75.9281 162.762 74.5548 163.334 73.3023C163.988 72.0134 164.856 70.845 165.903 69.8472C168.223 67.5633 170.888 65.6579 173.8 64.2008C177.115 62.5194 180.694 61.4167 184.381 60.9404C184.609 60.911 184.611 61.2693 184.384 61.2985Z" fill="white"/>
<path d="M168.058 68.1287C167.396 67.2015 167.086 66.0697 167.183 64.9354C167.281 63.8011 167.778 62.7381 168.587 61.9364C168.752 61.7748 169.011 62.0222 168.847 62.1841C168.091 62.9292 167.628 63.9194 167.54 64.9759C167.452 66.0323 167.744 67.0855 168.365 67.9452C168.5 68.1322 168.192 68.3147 168.058 68.1287Z" fill="white"/>
<path d="M162.836 76.4592C165.131 76.8652 167.494 76.3926 169.456 75.1356C169.65 75.0109 169.833 75.3185 169.639 75.443C167.596 76.7473 165.136 77.2341 162.749 76.8064C162.521 76.7655 162.61 76.4185 162.836 76.4592Z" fill="white"/>
<path d="M177.144 62.9934C177.326 63.4054 177.606 63.7661 177.961 64.043C178.316 64.3199 178.735 64.5044 179.179 64.5799C179.407 64.6179 179.318 64.9648 179.091 64.927C178.601 64.8413 178.139 64.637 177.746 64.332C177.353 64.0269 177.041 63.6303 176.837 63.1769C176.814 63.1358 176.808 63.0876 176.819 63.042C176.831 62.9964 176.859 62.9569 176.899 62.9315C176.94 62.9074 176.988 62.9004 177.034 62.912C177.08 62.9236 177.12 62.9528 177.144 62.9934Z" fill="white"/>
<path d="M192.729 87.3578C192.586 87.3381 192.443 87.3184 192.298 87.3009C190.374 87.0459 188.433 86.9474 186.494 87.0064C186.344 87.0086 186.192 87.0131 186.042 87.0196C181.371 87.2114 176.777 88.2676 172.492 90.1346C170.787 90.879 169.142 91.7519 167.57 92.7457C165.4 94.1182 163.156 95.7788 160.729 96.3386C160.477 96.3999 160.221 96.4454 159.963 96.475L149.937 87.8058C149.925 87.7747 149.91 87.7457 149.897 87.7145L149.48 87.3867C149.558 87.3297 149.64 87.2724 149.717 87.2155C149.762 87.1823 149.809 87.151 149.854 87.1178C149.884 87.0963 149.915 87.0749 149.941 87.0537C149.951 87.0465 149.962 87.0394 149.97 87.0345C149.996 87.0133 150.023 86.9964 150.047 86.9776C150.502 86.6557 150.961 86.3365 151.422 86.0199C151.424 86.0176 151.424 86.0176 151.428 86.0172C154.92 83.5712 158.689 81.5475 162.658 79.9884C162.777 79.9435 162.898 79.8962 163.022 79.8552C164.809 79.1915 166.648 78.6748 168.52 78.3102C169.545 78.1139 170.58 77.9696 171.62 77.8777C174.308 77.6456 177.016 77.8372 179.644 78.4455C184.884 79.6588 189.677 82.5322 192.515 87.0133C192.588 87.128 192.658 87.2408 192.729 87.3578Z" fill="#E6E6E6"/>
<path d="M192.596 87.4653C186.746 84.1385 179.994 82.7375 173.301 83.4611C171.857 83.5913 170.443 83.948 169.11 84.518C167.83 85.1152 166.734 86.0437 165.935 87.2073C165.168 88.2772 164.507 89.4604 163.493 90.3255C162.967 90.7606 162.356 91.0799 161.698 91.2623C161.04 91.4447 160.351 91.4862 159.676 91.3841C157.987 91.1732 156.475 90.3689 155.024 89.5311C153.412 88.6008 151.753 87.6091 149.853 87.4738C149.622 87.4574 149.661 87.1015 149.891 87.1179C153.198 87.3532 155.614 89.9932 158.727 90.8326C160.18 91.2243 161.76 91.1812 163.006 90.2559C164.096 89.4468 164.778 88.2273 165.545 87.1373C166.308 85.9908 167.34 85.0483 168.552 84.3922C169.851 83.7562 171.249 83.3457 172.686 83.1782C175.915 82.7496 179.192 82.8307 182.396 83.4186C186.056 84.0693 189.578 85.3406 192.81 87.1774C193.009 87.2911 192.795 87.5783 192.596 87.4653Z" fill="white"/>
<path d="M175.441 83.1016C175.472 81.9636 175.907 80.8736 176.669 80.0262C177.43 79.1789 178.468 78.6294 179.598 78.476C179.826 78.4457 179.884 78.7991 179.655 78.8294C178.603 78.9704 177.636 79.4824 176.929 80.2728C176.221 81.0633 175.82 82.0802 175.798 83.1401C175.793 83.3704 175.436 83.3306 175.441 83.1016Z" fill="white"/>
<path d="M166.251 86.6138C167.839 88.3176 170.011 89.3614 172.334 89.5369C172.564 89.5541 172.526 89.91 172.296 89.8929C169.878 89.7057 167.62 88.6149 165.972 86.8383C165.815 86.6688 166.095 86.4453 166.251 86.6138Z" fill="white"/>
<path d="M185.794 84.4653C185.69 84.9032 185.696 85.3599 185.813 85.7945C185.93 86.2292 186.152 86.6281 186.462 86.9554C186.621 87.1228 186.34 87.3461 186.182 87.1798C185.842 86.8166 185.597 86.3758 185.467 85.8959C185.337 85.416 185.327 84.9116 185.437 84.4268C185.444 84.3803 185.468 84.3379 185.504 84.3084C185.541 84.279 185.588 84.2645 185.635 84.2681C185.682 84.2734 185.725 84.2972 185.755 84.3341C185.784 84.371 185.798 84.4182 185.794 84.4653Z" fill="white"/>
<path d="M16.6413 203.279C16.1707 205.042 14.9341 206.511 13.4411 207.58C13.1977 207.755 12.9478 207.917 12.6946 208.07C12.6167 208.115 12.5388 208.164 12.4577 208.206C12.3701 208.258 12.2824 208.306 12.1948 208.352H5.17455C5.04797 208.096 4.92464 207.836 4.8013 207.58C1.79262 201.266 -0.320272 194.453 0.0399912 187.513C0.182921 184.821 0.749175 182.169 1.71797 179.653C3.64587 174.638 7.16411 170.298 12.0033 168.113C12.1234 168.058 12.25 168.003 12.3733 167.951C12.3344 168.091 12.2954 168.227 12.2565 168.366C11.7373 170.234 11.3704 172.141 11.1595 174.068C11.14 174.217 11.1238 174.366 11.1108 174.518C10.6497 179.166 11.0591 183.858 12.3181 188.356C12.3214 188.365 12.3246 188.378 12.3279 188.388C12.6038 189.383 12.924 190.363 13.2886 191.328C13.5742 192.09 13.8825 192.842 14.2201 193.581C15.6287 196.683 17.5176 199.989 16.6413 203.279Z" fill="#E6E6E6"/>
<path d="M12.4609 168.097C12.3927 168.188 12.3245 168.275 12.2564 168.366C10.8309 170.253 9.62036 172.292 8.64728 174.447C8.59536 174.554 8.54667 174.661 8.50448 174.771C7.17117 177.78 6.3149 180.977 5.96641 184.249C5.96263 184.271 5.96047 184.294 5.95992 184.317C5.87878 185.082 5.83009 185.853 5.81062 186.625C5.73845 188.071 5.89508 189.519 6.27474 190.916C6.62092 192.057 7.22754 193.103 8.04684 193.97C8.12799 194.057 8.20913 194.145 8.29676 194.229C8.36167 194.297 8.43307 194.365 8.50123 194.43C9.15684 195.056 9.87412 195.636 10.4908 196.307C10.7734 196.608 11.0287 196.933 11.2535 197.279C11.6123 197.859 11.8441 198.509 11.9336 199.185C12.0231 199.861 11.9683 200.548 11.7728 201.201C11.3314 202.841 10.322 204.225 9.28991 205.545C8.77386 206.206 8.24158 206.874 7.7807 207.58C7.61195 207.833 7.45615 208.089 7.31336 208.352H6.90441C7.04072 208.089 7.19002 207.833 7.3523 207.58C8.53695 205.716 10.2214 204.115 11.0945 202.063C11.6852 200.679 11.8637 199.111 11.1172 197.752C10.8984 197.357 10.6337 196.99 10.3285 196.657C9.73458 195.986 9.0238 195.412 8.37792 194.806C8.21564 194.654 8.0566 194.498 7.90406 194.336C7.09532 193.515 6.47124 192.532 6.07353 191.451C5.62313 190.078 5.4102 188.639 5.44388 187.195C5.44388 186.275 5.49257 185.348 5.58345 184.427C5.59318 184.31 5.60617 184.19 5.61915 184.07C6.28289 178.278 8.48722 172.768 12.0033 168.113C12.0682 168.022 12.1363 167.935 12.2045 167.847C12.344 167.666 12.6004 167.919 12.4609 168.097Z" fill="white"/>
<path d="M5.74997 184.458C4.62579 184.269 3.60533 183.688 2.87083 182.817C2.13633 181.946 1.73563 180.843 1.74027 179.705C1.7409 179.658 1.75953 179.614 1.79226 179.581C1.825 179.548 1.86926 179.529 1.91574 179.528C1.96221 179.527 2.00727 179.544 2.04141 179.576C2.07555 179.607 2.09612 179.651 2.09877 179.697C2.09248 180.757 2.46584 181.785 3.15146 182.594C3.83709 183.403 4.7898 183.941 5.83767 184.11C6.06534 184.148 5.97634 184.494 5.74997 184.458Z" fill="white"/>
<path d="M7.95639 194.035C9.86631 192.702 11.2029 190.699 11.6996 188.425C11.7486 188.199 12.0962 188.287 12.0472 188.512C11.5259 190.878 10.1307 192.959 8.14017 194.342C7.95035 194.474 7.76759 194.166 7.95639 194.035Z" fill="white"/>
<path d="M8.54028 174.409C8.96003 174.573 9.41386 174.629 9.86102 174.574C10.3082 174.519 10.7347 174.354 11.1022 174.094C11.2902 173.96 11.4728 174.268 11.286 174.401C10.8786 174.687 10.4073 174.869 9.91343 174.931C9.41952 174.992 8.91796 174.933 8.45258 174.756C8.40732 174.743 8.36869 174.714 8.34456 174.673C8.32042 174.633 8.31258 174.585 8.32263 174.539C8.33447 174.493 8.36398 174.454 8.40474 174.429C8.44549 174.405 8.4942 174.398 8.54028 174.409Z" fill="white"/>
<path d="M36.8093 180.631C36.6957 180.719 36.5788 180.807 36.4652 180.897C34.9243 182.075 33.4817 183.376 32.1518 184.787C32.0479 184.894 31.9441 185.004 31.8435 185.114L31.8402 185.118C28.6868 188.536 26.1934 192.508 24.4857 196.832L24.4759 196.861C24.4727 196.871 24.4694 196.877 24.4662 196.887C23.7893 198.618 23.2436 200.397 22.8336 202.209C22.4377 203.979 22.1131 205.875 21.4932 207.58C21.3991 207.843 21.2952 208.102 21.1849 208.352H6.75488C6.80357 208.096 6.8555 207.836 6.90743 207.58C7.64147 203.825 8.78872 200.161 10.3283 196.657C10.3802 196.54 10.4322 196.424 10.4906 196.307C11.2854 194.575 12.2199 192.911 13.2851 191.331L13.2853 191.33L13.286 191.329L13.287 191.328L13.2883 191.328C13.8732 190.466 14.5015 189.634 15.1708 188.835C16.9066 186.773 18.957 184.996 21.2465 183.571C21.2595 183.562 21.2758 183.555 21.2887 183.545C25.8456 180.722 31.2463 179.377 36.41 180.541H36.4133C36.5464 180.57 36.6762 180.599 36.8093 180.631Z" fill="#E6E6E6"/>
<path d="M36.7937 180.803C36.6834 180.832 36.573 180.865 36.4659 180.897C34.1913 181.546 31.9957 182.445 29.9195 183.578C29.8157 183.633 29.7118 183.691 29.6079 183.75C26.7387 185.349 24.1342 187.382 21.8866 189.775C21.8849 189.777 21.8837 189.779 21.8834 189.782C21.8574 189.808 21.8282 189.837 21.8055 189.863C21.2862 190.42 20.7864 191.001 20.3125 191.597C19.3856 192.709 18.6387 193.959 18.099 195.302C17.6866 196.421 17.541 197.621 17.6738 198.806C17.6836 198.926 17.6998 199.043 17.716 199.162C17.729 199.256 17.742 199.35 17.7582 199.448C17.9724 200.747 18.3424 202.051 18.2386 203.376C18.1754 204.056 17.9689 204.714 17.6327 205.308C17.2965 205.901 16.8382 206.418 16.2879 206.822C15.9139 207.111 15.5141 207.365 15.0936 207.58C14.4923 207.89 13.8658 208.148 13.2208 208.352H11.9453C12.1173 208.303 12.2861 208.255 12.4581 208.206C13.0685 208.034 13.6679 207.825 14.2529 207.58C14.5872 207.441 14.9123 207.281 15.2266 207.101C16.5314 206.352 17.6187 205.204 17.8458 203.671C18.0438 202.329 17.6608 200.987 17.4336 199.675C17.3947 199.448 17.359 199.224 17.3395 199C17.1846 197.864 17.2787 196.707 17.6154 195.61C18.0824 194.242 18.7806 192.963 19.6796 191.83C20.2358 191.093 20.8294 190.384 21.4582 189.707C21.5361 189.62 21.6172 189.532 21.7016 189.445C23.9964 187.034 26.6461 184.987 29.5592 183.374H29.5625C31.7285 182.169 34.0265 181.219 36.4107 180.541H36.414C36.5211 180.508 36.6314 180.476 36.7385 180.447C36.9625 180.388 37.0144 180.742 36.7937 180.803Z" fill="white"/>
<path d="M21.5726 189.83C20.7887 189.004 20.3245 187.926 20.2629 186.789C20.2013 185.652 20.5463 184.531 21.2363 183.624C21.3766 183.441 21.6677 183.651 21.5273 183.834C20.8832 184.676 20.5619 185.721 20.6214 186.78C20.681 187.838 21.1174 188.84 21.8519 189.606C22.0113 189.772 21.7311 189.996 21.5726 189.83Z" fill="white"/>
<path d="M17.5614 198.804C19.8902 198.888 22.165 198.092 23.9323 196.575C24.1073 196.425 24.3318 196.704 24.1571 196.854C22.315 198.429 19.946 199.252 17.5229 199.16C17.2919 199.151 17.3317 198.795 17.5614 198.804Z" fill="white"/>
<path d="M29.8586 183.484C30.0952 183.867 30.4233 184.186 30.8135 184.411C31.2036 184.636 31.6437 184.76 32.094 184.773C32.325 184.779 32.2849 185.135 32.0554 185.129C31.5579 185.112 31.0721 184.974 30.6405 184.727C30.2089 184.479 29.8445 184.13 29.5793 183.709C29.551 183.671 29.538 183.624 29.5431 183.578C29.5481 183.531 29.5708 183.488 29.6066 183.457C29.6437 183.428 29.691 183.414 29.7382 183.419C29.7854 183.424 29.8286 183.448 29.8586 183.484Z" fill="white"/>
<path d="M148.124 56.118C147.791 56.5555 147.366 56.9149 146.878 57.1706C146.391 57.4263 145.854 57.5723 145.304 57.5982C144.754 57.6241 144.206 57.5293 143.696 57.3204C143.187 57.1116 142.73 56.7938 142.357 56.3895L130.089 61.7183L131.284 54.8785L142.751 50.8667C143.473 50.2862 144.383 49.9903 145.308 50.0349C146.234 50.0796 147.111 50.4618 147.773 51.1091C148.435 51.7564 148.837 52.6238 148.901 53.5469C148.966 54.4701 148.689 55.3849 148.124 56.118Z" fill="#FFB8B8"/>
<path d="M139.936 58.2536L111.441 70.9302L111.38 70.9083L78.9018 59.3499C76.4826 58.0872 74.6382 55.9487 73.7463 53.3723C72.8544 50.7959 72.9825 47.9764 74.1042 45.4911C74.726 44.118 75.6319 42.892 76.7623 41.8937C77.8928 40.8955 79.2221 40.1476 80.6627 39.6995C82.1034 39.2513 83.6228 39.1129 85.1209 39.2934C86.619 39.4739 88.0618 39.9693 89.3544 40.7469L113.524 55.2874L136.961 52.2539L139.936 58.2536Z" fill="#E6E6E6"/>
<path d="M280 208.614C280 208.665 279.99 208.715 279.971 208.762C279.951 208.809 279.923 208.851 279.887 208.887C279.851 208.923 279.809 208.952 279.762 208.971C279.715 208.99 279.664 209 279.614 209H0.396966C0.294532 209 0.196297 208.959 0.123865 208.887C0.0514334 208.815 0.0107422 208.717 0.0107422 208.614C0.0107422 208.512 0.0514334 208.414 0.123865 208.342C0.196297 208.269 0.294532 208.229 0.396966 208.229H279.614C279.664 208.228 279.715 208.238 279.762 208.258C279.809 208.277 279.851 208.305 279.887 208.341C279.923 208.377 279.951 208.42 279.971 208.466C279.99 208.513 280 208.564 280 208.614Z" fill="#CCCCCC"/>
<path d="M101.699 96.2032L72.9736 91.6145C72.2202 91.3735 71.5279 90.9725 70.9444 90.4392C70.3608 89.9058 69.8997 89.2526 69.5927 88.5244C69.2857 87.7963 69.1402 87.0104 69.166 86.2208C69.1918 85.4312 69.3885 84.6565 69.7424 83.9499L71.0451 81.3476L70.5391 54.0076C70.4781 50.4513 71.3559 46.9417 73.0844 43.8318C74.8128 40.722 77.3308 38.1216 80.3851 36.2922L83.1863 34.6194L84.602 31.0291L97.6559 31.347L97.694 36.0559L102.369 43.5008L102.369 43.5317L102.075 84.0534L100.787 88.2353L102.735 93.0992L101.699 96.2032Z" fill="#E6E6E6"/>
<path d="M92.3247 26.5645C98.8752 26.5645 104.185 21.2612 104.185 14.7191C104.185 8.17713 98.8752 2.87378 92.3247 2.87378C85.7741 2.87378 80.4639 8.17713 80.4639 14.7191C80.4639 21.2612 85.7741 26.5645 92.3247 26.5645Z" fill="#FFB8B8"/>
<path d="M79.9737 17.3013C79.62 15.8129 79.7824 13.7185 79.9823 12.2198C80.5064 8.29082 82.6912 4.55562 86.0105 2.34314C86.6398 1.86574 87.3877 1.56892 88.1735 1.48467C88.9588 1.45193 89.8099 1.87175 90.051 2.61883C90.2488 2.12575 90.5457 1.6784 90.9234 1.30438C91.3011 0.930354 91.7515 0.6376 92.2468 0.444186C93.2419 0.0634382 94.3121 -0.0805514 95.3726 0.0236304C97.4281 0.192844 99.3994 0.914675 101.077 2.11252C102.755 3.31036 104.077 4.93953 104.903 6.82713C105.22 7.57874 106.104 4.80249 106.506 5.51265C106.875 6.25083 107.518 6.81551 108.299 7.08584C109.085 7.30502 109.405 10.5413 109.714 9.78663C109.954 10.3443 110.049 10.9536 109.99 11.5578C109.931 12.162 109.72 12.7415 109.376 13.2422C109.032 13.7428 108.567 14.1485 108.024 14.4214C107.481 14.6943 106.878 14.8255 106.27 14.8028C105.47 14.7728 104.704 14.4788 103.913 14.3522C101.085 13.8996 98.0842 15.948 97.4795 18.7445C97.263 17.9358 96.9172 17.1673 96.4553 16.4687C96.2209 16.1212 95.9067 15.8347 95.5391 15.633C95.1714 15.4312 94.7608 15.32 94.3414 15.3087C93.5366 15.3388 92.8292 15.8643 92.3071 16.4766C91.7849 17.0889 91.3927 17.8033 90.8667 18.4123C89.3233 20.1992 87.2357 24.3666 85.0361 24.0627C83.3003 23.8228 80.4567 19.3335 79.9737 17.3013Z" fill="#2F2E43"/>
<path d="M164.022 69.5409C164.105 69.0008 163.993 68.4489 163.708 67.9829C163.422 67.5169 162.981 67.167 162.461 66.9952L130.52 56.3709C130.214 56.2686 129.89 56.2314 129.568 56.2617L121.562 57.0178L116.969 57.453L108.491 58.2531C107.98 58.302 107.499 58.5191 107.124 58.8705C106.749 59.2218 106.501 59.6875 106.42 60.1946L102.116 87.0454C102.034 87.5692 102.134 88.105 102.399 88.5644C102.663 89.0238 103.077 89.3794 103.571 89.5724L135.845 102.014C135.997 102.073 136.154 102.115 136.315 102.14C136.549 102.178 136.787 102.18 137.021 102.145L157.876 99.0586C158.368 98.9874 158.824 98.7599 159.176 98.4096C159.528 98.0593 159.758 97.6049 159.831 97.114L164.022 69.5409Z" fill="white"/>
<path d="M104.302 87.6806L136.577 100.122C136.624 100.14 136.675 100.146 136.725 100.139L157.577 97.0527C157.639 97.0442 157.696 97.0159 157.741 96.9719C157.785 96.9279 157.814 96.8708 157.822 96.809L162.016 69.2356C162.025 69.1683 162.011 69.0998 161.975 69.0417C161.94 68.9837 161.885 68.9398 161.821 68.9175L161.606 68.8449L129.878 58.2955C129.863 58.2904 129.849 58.2868 129.833 58.2848C129.809 58.2802 129.784 58.279 129.759 58.2809L110.232 60.1263L108.682 60.2715C108.619 60.2783 108.559 60.3056 108.512 60.3494C108.466 60.3931 108.435 60.4509 108.424 60.5139L104.121 87.3637C104.11 87.4293 104.123 87.4965 104.156 87.5542C104.189 87.6118 104.241 87.6564 104.302 87.6806Z" fill="#013789"/>
<path d="M110.231 60.1263L129.758 58.2809C129.783 58.279 129.808 58.2802 129.833 58.2848C129.848 58.2868 129.863 58.2904 129.878 58.2955L161.606 68.8449L153.237 69.7297L150.105 70.0592L141.192 70.9996C141.166 71.0009 141.14 71.0006 141.114 70.9987C141.098 70.9939 141.082 70.9892 141.063 70.9841L110.231 60.1263Z" fill="#2F2E43"/>
<path d="M103.57 89.574L135.845 102.015C135.996 102.074 136.154 102.115 136.315 102.138C136.549 102.177 136.787 102.18 137.022 102.147L157.874 99.0606C158.366 98.989 158.822 98.7611 159.175 98.4106C159.527 98.0601 159.757 97.6057 159.831 97.1145L164.021 69.5407C164.083 69.1342 164.036 68.7186 163.885 68.336C163.864 68.2852 163.843 68.2343 163.818 68.1864C163.652 67.8371 163.399 67.536 163.083 67.312C162.893 67.1757 162.683 67.069 162.461 66.9954L162.423 66.982L130.522 56.3705C130.391 56.329 130.258 56.2967 130.123 56.2739C129.939 56.2478 129.752 56.2442 129.567 56.2631L121.562 57.0167L116.969 57.4542L108.49 58.2537C108.144 58.2861 107.809 58.3966 107.511 58.577C107.488 58.5882 107.466 58.6013 107.445 58.6163C107.43 58.626 107.416 58.6366 107.403 58.6481C107.143 58.8255 106.921 59.0538 106.753 59.3193C106.584 59.5847 106.471 59.8817 106.42 60.1922L102.114 87.045C102.032 87.5691 102.132 88.1053 102.397 88.5651C102.662 89.0249 103.076 89.3808 103.57 89.574ZM106.992 60.2858C107.044 59.964 107.187 59.6637 107.404 59.42C107.47 59.3415 107.543 59.27 107.623 59.2064C107.842 59.0296 108.101 58.909 108.377 58.8551C108.432 58.8439 108.487 58.8361 108.543 58.8318L122.818 57.4849L129.623 56.8383C129.669 56.8329 129.711 56.8337 129.754 56.8313C129.857 56.8291 129.96 56.8368 130.061 56.8541C130.155 56.8662 130.247 56.888 130.336 56.9193L162.275 67.5442C162.3 67.5531 162.322 67.5617 162.348 67.5706C162.638 67.6786 162.893 67.864 163.085 68.1067C163.237 68.2925 163.348 68.5082 163.411 68.7397C163.473 68.9713 163.486 69.2134 163.449 69.4504L159.255 97.027C159.2 97.3948 159.029 97.7351 158.765 97.9979C158.502 98.2606 158.16 98.4318 157.792 98.4861L136.937 101.572C136.638 101.615 136.334 101.58 136.053 101.472L103.778 89.0338C103.408 88.8882 103.099 88.6214 102.901 88.2771C102.703 87.9327 102.628 87.5314 102.688 87.1389L106.992 60.2858Z" fill="#247AFD"/>
<path d="M107.334 58.7947C107.351 58.7458 107.381 58.7025 107.421 58.6695C107.434 58.6589 107.448 58.6494 107.463 58.6409C107.476 58.6357 107.49 58.6272 107.504 58.622C107.568 58.596 107.641 58.5948 107.706 58.6185L108.378 58.8552L141.196 70.4171L148.877 69.6066L153.175 69.1538L162.272 68.192L163.086 68.1068L163.244 68.0893C163.312 68.0831 163.38 68.1009 163.437 68.1396C163.493 68.1783 163.534 68.2354 163.553 68.3012C163.557 68.3163 163.56 68.3319 163.562 68.3476C163.568 68.41 163.555 68.4729 163.522 68.5268C163.49 68.5807 163.441 68.6226 163.383 68.6464C163.357 68.657 163.33 68.6643 163.303 68.668L162.196 68.7839L153.237 69.7296L150.105 70.0592L141.193 70.9996C141.167 71.0009 141.141 71.0005 141.114 70.9986C141.099 70.9938 141.083 70.9891 141.064 70.984L107.624 59.2066L107.51 59.1664C107.484 59.1579 107.46 59.1445 107.439 59.1271C107.388 59.09 107.351 59.0378 107.332 58.978C107.313 58.9183 107.314 58.854 107.334 58.7947Z" fill="#247AFD"/>
<path d="M136.403 102.223C136.328 102.211 136.26 102.169 136.215 102.108C136.17 102.046 136.151 101.969 136.162 101.894L140.874 70.6679C140.886 70.5919 140.927 70.5236 140.989 70.478C141.051 70.4324 141.128 70.4132 141.204 70.4246L141.207 70.425C141.282 70.4371 141.35 70.4785 141.395 70.5401C141.44 70.6018 141.459 70.6787 141.448 70.7543L136.736 101.98C136.725 102.056 136.683 102.124 136.621 102.17C136.56 102.215 136.482 102.235 136.406 102.223L136.403 102.223Z" fill="#247AFD"/>
<path d="M148.346 100.242L145.213 100.572L148.878 69.6057C148.878 69.6057 153.063 68.8489 153.175 69.1524C153.244 69.3335 148.376 100.043 148.346 100.242Z" fill="#247AFD"/>
<path d="M107.511 59.166L107.427 73.2878L132.459 82.8135L141.448 70.7543L107.511 59.166Z" fill="#247AFD"/>
<path d="M163.087 68.1072C162.878 67.8445 162.596 67.6488 162.276 67.5443L130.338 56.9198C130.248 56.8897 130.156 56.8672 130.062 56.8528C129.961 56.8353 129.857 56.8276 129.754 56.8297L129.806 56.5065L130.125 56.2753L137.71 50.7913L163.039 58.5437L163.083 67.3121L163.087 68.1072Z" fill="#247AFD"/>
<path d="M108.787 81.8361C108.823 81.8396 108.858 81.8471 108.892 81.8583L118.692 85.0728C118.815 85.113 118.917 85.2002 118.975 85.3153C119.033 85.4304 119.043 85.5639 119.003 85.6864C118.963 85.8089 118.875 85.9105 118.76 85.9687C118.645 86.0269 118.511 86.037 118.389 85.9968L108.589 82.7823C108.475 82.745 108.379 82.6671 108.319 82.5635C108.259 82.46 108.24 82.338 108.264 82.2209C108.289 82.1038 108.355 81.9999 108.452 81.9289C108.548 81.8579 108.667 81.8249 108.787 81.8361Z" fill="white"/>
<path d="M148.325 141.077C150.476 141.077 152.22 139.335 152.22 137.187C152.22 135.039 150.476 133.297 148.325 133.297C146.174 133.297 144.431 135.039 144.431 137.187C144.431 139.335 146.174 141.077 148.325 141.077Z" fill="#F2F2F2"/>
<path d="M49.01 155.339C51.161 155.339 52.9047 153.597 52.9047 151.449C52.9047 149.301 51.161 147.56 49.01 147.56C46.859 147.56 45.1152 149.301 45.1152 151.449C45.1152 153.597 46.859 155.339 49.01 155.339Z" fill="#F2F2F2"/>
<path d="M130.15 26.6558C132.301 26.6558 134.044 24.9143 134.044 22.7661C134.044 20.6179 132.301 18.8765 130.15 18.8765C127.999 18.8765 126.255 20.6179 126.255 22.7661C126.255 24.9143 127.999 26.6558 130.15 26.6558Z" fill="#F2F2F2"/>
<path d="M136.54 87.5567C136.035 87.7757 135.489 87.8816 134.938 87.8667C134.388 87.8519 133.848 87.7168 133.356 87.4709C132.864 87.225 132.431 86.8743 132.089 86.4435C131.748 86.0127 131.505 85.5123 131.377 84.9775L118.066 83.6344L122.458 78.2517L134.425 80.3523C135.338 80.1984 136.277 80.3846 137.062 80.8755C137.848 81.3665 138.426 82.1281 138.687 83.0162C138.947 83.9042 138.873 84.8569 138.477 85.6937C138.082 86.5306 137.392 87.1935 136.54 87.5567Z" fill="#FFB8B8"/>
<path d="M128.353 85.4214L97.2898 82.563L97.2471 82.5141L74.5763 56.5711C73.0844 54.2883 72.5226 51.5223 73.0061 48.8393C73.4896 46.1563 74.9818 43.7594 77.1771 42.1394C78.3918 41.2453 79.7823 40.6182 81.2571 40.2995C82.732 39.9808 84.2577 39.9776 85.7338 40.2902C87.21 40.6029 88.6031 41.2242 89.8214 42.1132C91.0398 43.0023 92.0558 44.139 92.8026 45.4485L106.766 69.9354L128.695 78.7348L128.353 85.4214Z" fill="#E6E6E6"/>
<path d="M206.32 35.531C205.549 29.88 204.582 23.8129 200.591 19.7335C199.324 18.4392 197.809 17.4143 196.135 16.7207C194.461 16.0272 192.664 15.6793 190.852 15.698C189.041 15.7167 187.251 16.1017 185.592 16.8297C183.933 17.5577 182.439 18.6137 181.2 19.934C178.295 23.0291 177.012 27.3751 176.895 31.6159C176.777 35.8566 177.723 40.0502 178.772 44.1611C184.324 44.2719 189.835 43.1886 194.931 40.9848C196.205 40.4324 197.459 39.808 198.805 39.4658C200.151 39.1236 201.111 39.9847 202.363 40.5851L203.05 39.2706C203.613 40.3165 205.356 40.0065 205.988 39.0008C206.62 37.9952 206.481 36.7074 206.32 35.531Z" fill="#2F2E43"/>
<path d="M184.313 67.0725L161.634 67.5569C161.286 66.9557 160.77 66.4685 160.15 66.1546C159.529 65.8407 158.831 65.7137 158.139 65.789C157.448 65.8643 156.793 66.1387 156.255 66.5788C155.717 67.0189 155.319 67.6057 155.108 68.2678C154.898 68.9299 154.885 69.6387 155.071 70.3081C155.257 70.9775 155.633 71.5785 156.155 72.038C156.676 72.4976 157.32 72.7958 158.008 72.8965C158.697 72.9971 159.399 72.8959 160.031 72.605C163.039 72.7757 186.571 76.1113 187.975 73.9617C189.4 71.7799 197.005 64.08 197.005 64.08L191.159 55.7678L184.313 67.0725Z" fill="#FFB8B8"/>
<path d="M189.839 41.1219C195.724 41.1219 200.494 36.3575 200.494 30.4804C200.494 24.6032 195.724 19.8389 189.839 19.8389C183.954 19.8389 179.184 24.6032 179.184 30.4804C179.184 36.3575 183.954 41.1219 189.839 41.1219Z" fill="#FFB8B8"/>
<path d="M206.906 50.9559C205.65 48.4601 205.04 45.3768 202.363 44.5677C200.555 44.0213 193.244 44.8401 191.596 45.7624C188.856 47.2966 191.339 50.1715 189.722 52.8618C187.965 55.7864 183.188 61.6556 181.431 64.5802C180.222 66.5907 184.292 72.4922 183.639 74.7445C182.986 76.9968 182.954 79.5247 184.067 81.5894C185.063 83.4374 183.622 85.0723 184.624 86.9173C185.666 88.836 186.944 96.0102 185.975 97.9665L185.325 99.9113C191.767 100.289 197.183 92.6038 203.585 91.7942C205.175 91.5932 206.826 91.3305 208.136 90.4088C210.066 89.0511 210.829 86.5874 211.306 84.2784C213.6 72.9916 212.052 61.2627 206.906 50.9559Z" fill="#247AFD"/>
<path d="M216.563 77.3088C215.666 74.8629 214.042 64.1693 214.042 64.1693L203.875 63.8716L208.845 76.1149L195.282 95.078C195.282 95.078 195.307 95.1196 195.353 95.1939C194.64 95.0797 193.908 95.183 193.255 95.4905C192.602 95.798 192.057 96.2953 191.691 96.9174C191.325 97.5394 191.156 98.2572 191.206 98.9768C191.255 99.6964 191.521 100.384 191.969 100.95C192.416 101.517 193.024 101.935 193.714 102.15C194.403 102.365 195.141 102.368 195.832 102.157C196.523 101.947 197.134 101.533 197.585 100.969C198.036 100.406 198.307 99.7201 198.361 99.0009C198.411 99.0295 198.469 99.0398 198.526 99.0301C198.583 99.0204 198.635 98.9912 198.672 98.9476C200.181 97.0561 217.46 79.7546 216.563 77.3088Z" fill="#FFB8B8"/>
<path d="M217.597 70.5553C216.664 66.622 215.724 62.6672 214.151 58.9428C212.578 55.2184 210.325 51.7007 207.158 49.1845C206.145 48.3801 205.013 47.67 203.743 47.4199C202.473 47.1698 201.043 47.4497 200.151 48.3863C198.724 49.885 199.154 52.2906 199.677 54.2914C201.22 60.1909 202.763 66.0903 204.306 71.9898C208.762 71.5181 213.218 71.0464 217.674 70.5746L217.597 70.5553Z" fill="#247AFD"/>
<path d="M202.896 31.9564C202.503 29.3821 202.093 26.7863 201.171 24.3623C200.25 21.9383 198.764 19.668 196.632 18.2948C193.257 16.1208 188.887 16.5401 185.103 17.7906C182.177 18.7578 179.32 20.2277 177.257 22.5909C175.193 24.9541 174.034 28.3261 174.802 31.4161C178.838 30.4637 182.874 29.5113 186.911 28.5589L186.469 28.8707C187.794 29.5307 188.952 30.4836 189.853 31.657C190.755 32.8304 191.377 34.1935 191.672 35.6428C191.96 37.1098 191.919 38.6225 191.55 40.0714C191.182 41.5204 190.496 42.8695 189.541 44.0211C192.294 43.0458 195.047 42.0705 197.799 41.0953C199.498 40.4933 201.317 39.7997 202.325 38.2557C203.493 36.4655 203.221 34.0928 202.896 31.9564Z" fill="#2F2E43"/>
</g>
<defs>
<clipPath id="clip0_3046_4833">
<rect width="280" height="209" fill="white"/>
</clipPath>
</defs>
</svg>
