<svg width="123" height="30" viewBox="0 0 123 30" fill="none" xmlns="http://www.w3.org/2000/svg">
<g clip-path="url(#clip0_2480_3942)">
<path d="M16.5036 0V5.45936H10.442C7.62685 5.45936 5.34279 7.79152 5.34279 10.6659V21.8211H0V11.8524C0 5.30443 5.19505 0 11.608 0H16.5036Z" fill="#247AFD"/>
<path d="M16.4996 8.187H11.1528V19.3422C11.1528 22.2166 8.86871 24.5488 6.05357 24.5488H0V30.0041H4.89157C11.3005 30.0041 16.4996 24.6996 16.4996 18.1517V8.187Z" fill="#247AFD"/>
<path d="M25.0885 11.7015V9.86273H21.291V23.8679H25.2682V17.2588C25.2682 15.9214 25.6036 14.9388 26.2744 14.3028C26.9453 13.6708 27.8238 13.3528 28.9139 13.3528C29.0656 13.3528 29.2094 13.3569 29.3491 13.365C29.4849 13.3732 29.6366 13.3854 29.8083 13.4058V9.65887C28.5186 9.65887 27.4205 9.91574 26.518 10.4254C25.939 10.7556 25.4638 11.1797 25.0925 11.7056L25.0885 11.7015Z" fill="#333333"/>
<path d="M41.9754 10.5273C40.8973 9.94428 39.6834 9.6548 38.3417 9.6548C37 9.6548 35.6982 9.96467 34.5961 10.5803C33.49 11.196 32.6195 12.0481 31.9846 13.1326C31.3457 14.2172 31.0303 15.4607 31.0303 16.8674C31.0303 18.274 31.3537 19.4931 32.0006 20.5776C32.6475 21.6621 33.5579 22.5183 34.7399 23.1422C35.9218 23.766 37.2915 24.0799 38.8568 24.0799C40.0986 24.0799 41.1928 23.8842 42.1431 23.4928C43.0935 23.1014 43.8841 22.5428 44.515 21.813L42.3987 19.4686C41.9395 19.9212 41.4323 20.2596 40.8813 20.4838C40.3302 20.7081 39.6874 20.8222 38.9566 20.8222C38.142 20.8222 37.4312 20.6714 36.8283 20.3656C36.2253 20.0639 35.7581 19.6195 35.4267 19.0364C35.247 18.7225 35.1192 18.3759 35.0354 18.009H45.4055C45.4215 17.8377 45.4374 17.6502 45.4574 17.4504C45.4734 17.2506 45.4814 17.0712 45.4814 16.9163C45.4814 15.4077 45.1659 14.1112 44.539 13.0266C43.9081 11.9421 43.0575 11.1104 41.9754 10.5273ZM36.5727 13.1816C37.0918 12.8799 37.6908 12.7249 38.3696 12.7249C39.0485 12.7249 39.6434 12.8758 40.1545 13.1816C40.6657 13.4874 41.065 13.9073 41.3525 14.4455C41.5442 14.8043 41.6719 15.2039 41.7358 15.6442H34.9835C35.0513 15.2079 35.1751 14.8125 35.3628 14.4618C35.6503 13.9155 36.0536 13.4914 36.5727 13.1857V13.1816Z" fill="#333333"/>
<path d="M57.5526 16.5126C57.0694 16.2272 56.5303 16.0071 55.9353 15.8481C55.3404 15.6931 54.7494 15.5749 54.1624 15.4974C53.5754 15.42 53.0363 15.3303 52.5452 15.2242C52.054 15.1182 51.6587 14.9796 51.3592 14.8084C51.0597 14.6371 50.912 14.3762 50.912 14.0296C50.912 13.6464 51.1156 13.3365 51.5229 13.0919C51.9302 12.8472 52.5771 12.729 53.4596 12.729C54.0865 12.729 54.7374 12.8024 55.4082 12.9492C56.0791 13.096 56.7459 13.3691 57.4088 13.7687L58.7345 10.878C58.0876 10.4784 57.281 10.1767 56.3147 9.96874C55.3444 9.76081 54.394 9.6548 53.4596 9.6548C52.1339 9.6548 50.9959 9.85051 50.0455 10.2419C49.0951 10.6333 48.3684 11.1674 47.8653 11.8443C47.3621 12.5211 47.1145 13.2998 47.1145 14.1886C47.1145 14.9878 47.2623 15.636 47.5618 16.1416C47.8573 16.6431 48.2526 17.0427 48.7477 17.3403C49.2389 17.6339 49.7859 17.8581 50.3809 18.0049C50.9759 18.1517 51.5669 18.2699 52.1539 18.3555C52.7408 18.4412 53.2799 18.5309 53.7711 18.6165C54.2622 18.7021 54.6575 18.8285 54.957 18.9957C55.2525 19.1628 55.4043 19.4074 55.4043 19.7377C55.4043 20.1373 55.2126 20.4512 54.8292 20.6755C54.4459 20.8997 53.795 21.0139 52.8806 21.0139C52.046 21.0139 51.2035 20.8875 50.345 20.6347C49.4865 20.3819 48.7437 20.0598 48.1128 19.6602L46.7871 22.5754C47.414 23.0076 48.2686 23.3705 49.3507 23.6559C50.4288 23.9413 51.5549 24.084 52.7289 24.084C54.1065 24.084 55.2725 23.8924 56.2348 23.5132C57.1932 23.1299 57.9319 22.608 58.439 21.9394C58.9501 21.2707 59.2057 20.5042 59.2057 19.6358C59.2057 18.8366 59.054 18.1924 58.7465 17.695C58.439 17.2017 58.0437 16.8103 57.5605 16.5249L57.5526 16.5126Z" fill="#333333"/>
<path d="M71.3924 10.5273C70.3143 9.94428 69.1004 9.6548 67.7587 9.6548C66.417 9.6548 65.1152 9.96467 64.0131 10.5803C62.907 11.196 62.0365 12.0481 61.4016 13.1326C60.7627 14.2172 60.4473 15.4607 60.4473 16.8674C60.4473 18.274 60.7707 19.4931 61.4176 20.5776C62.0645 21.6621 62.9749 22.5183 64.1569 23.1422C65.3388 23.766 66.7085 24.0799 68.2738 24.0799C69.5156 24.0799 70.6097 23.8842 71.5641 23.4928C72.5145 23.1014 73.3051 22.5428 73.936 21.813L71.8197 19.4686C71.3605 19.9212 70.8533 20.2596 70.3023 20.4838C69.7512 20.7081 69.1083 20.8222 68.3776 20.8222C67.563 20.8222 66.8522 20.6714 66.2493 20.3656C65.6463 20.0639 65.1791 19.6195 64.8477 19.0364C64.668 18.7225 64.5402 18.3759 64.4564 18.009H74.8265C74.8425 17.8377 74.8584 17.6502 74.8784 17.4504C74.8944 17.2506 74.9024 17.0712 74.9024 16.9163C74.9024 15.4077 74.5869 14.1112 73.96 13.0266C73.3331 11.9421 72.4785 11.1104 71.3964 10.5273H71.3924ZM65.9897 13.1816C66.5088 12.8799 67.1078 12.7249 67.7866 12.7249C68.4654 12.7249 69.0604 12.8758 69.5715 13.1816C70.0827 13.4874 70.482 13.9073 70.7695 14.4455C70.9611 14.8043 71.0889 15.2039 71.1528 15.6442H64.4004C64.4683 15.2079 64.5921 14.8125 64.7798 14.4618C65.0673 13.9155 65.4706 13.4914 65.9897 13.1857V13.1816Z" fill="#333333"/>
<path d="M79.9215 11.7056V9.86681H76.124V23.8679H80.1012V17.2588C80.1012 15.9214 80.4366 14.9388 81.1074 14.3028C81.7783 13.6708 82.6568 13.3528 83.7469 13.3528C83.8986 13.3528 84.0424 13.3569 84.1821 13.365C84.3179 13.3732 84.4696 13.3854 84.6413 13.4058V9.65887C83.3516 9.65887 82.2535 9.91574 81.355 10.4254C80.776 10.7556 80.3008 11.1797 79.9255 11.7056H79.9215Z" fill="#333333"/>
<path d="M93.7538 19.3993L89.9643 9.86274H85.8594L91.6214 23.8679H95.7264L101.512 9.86274H97.687L93.7538 19.3993Z" fill="#333333"/>
<path d="M106.712 9.86274H102.734V23.8638H106.712V9.86274Z" fill="#333333"/>
<path d="M122.033 13.1163C121.386 12.04 120.496 11.196 119.358 10.5803C118.22 9.96467 116.926 9.6548 115.484 9.6548C114.043 9.6548 112.725 9.96467 111.595 10.5803C110.465 11.196 109.575 12.0481 108.92 13.1326C108.265 14.2172 107.938 15.4607 107.938 16.8674C107.938 18.274 108.265 19.4931 108.92 20.5776C109.575 21.6621 110.465 22.5183 111.595 23.1422C112.725 23.766 114.019 24.0799 115.484 24.0799C116.95 24.0799 118.22 23.766 119.358 23.1422C120.496 22.5183 121.386 21.6621 122.033 20.5776C122.68 19.4931 123.004 18.2577 123.004 16.8674C123.004 15.477 122.68 14.1968 122.033 13.1204V13.1163ZM118.515 18.9345C118.208 19.5175 117.793 19.9619 117.265 20.2759C116.738 20.5898 116.143 20.7448 115.481 20.7448C114.818 20.7448 114.223 20.5898 113.696 20.2759C113.168 19.9619 112.749 19.5175 112.434 18.9345C112.118 18.3515 111.963 17.6624 111.963 16.8633C111.963 16.0642 112.118 15.3547 112.434 14.7798C112.749 14.209 113.168 13.7646 113.696 13.4507C114.223 13.1367 114.818 12.9818 115.481 12.9818C116.143 12.9818 116.738 13.1367 117.265 13.4507C117.793 13.7646 118.208 14.2049 118.515 14.7798C118.823 15.3506 118.974 16.0478 118.974 16.8633C118.974 17.6787 118.823 18.3515 118.515 18.9345Z" fill="#333333"/>
</g>
<defs>
<clipPath id="clip0_2480_3942">
<rect width="123" height="30" fill="white"/>
</clipPath>
</defs>
</svg>
