<svg width="102" height="92" viewBox="0 0 102 92" fill="none" xmlns="http://www.w3.org/2000/svg">
<g clip-path="url(#clip0_2091_2727)">
<path d="M58.783 91.8198H29.3211C25.0357 91.8198 21.5498 88.3587 21.5498 84.1039V7.71589C21.5498 3.4611 25.0357 0 29.3211 0H58.783C63.0684 0 66.5543 3.4611 66.5543 7.71589V84.1039C66.5543 88.3587 63.0684 91.8198 58.783 91.8198Z" fill="black"/>
<path d="M58.8045 89.731H29.2998C26.1281 89.731 23.5469 87.1681 23.5469 84.019V7.65076C23.5469 4.5017 26.1281 1.93882 29.2998 1.93882H58.8045C61.9761 1.93882 64.5574 4.5017 64.5574 7.65076V84.019C64.5574 87.1681 61.9761 89.731 58.8045 89.731Z" fill="white"/>
<path d="M48.2232 7.02216H39.8798C38.7783 7.02216 37.8828 6.13303 37.8828 5.03942C37.8828 3.9458 38.7783 3.05667 39.8798 3.05667H48.2232C49.3246 3.05667 50.2201 3.9458 50.2201 5.03942C50.2201 6.13303 49.3246 7.02216 48.2232 7.02216Z" fill="black"/>
<path d="M45.9961 42.2784V47.7237H30.1561C28.6442 47.7237 27.4131 46.5029 27.4131 45.0003C27.4131 43.4977 28.6442 42.2784 30.1561 42.2784H45.9961Z" fill="#6C63FF"/>
<path d="M57.949 42.2784H30.1561C28.6442 42.2784 27.4131 43.4992 27.4131 45.0003C27.4131 46.5014 28.6442 47.7237 30.1561 47.7237H57.949C59.4624 47.7237 60.692 46.5029 60.692 45.0003C60.692 43.4977 59.4624 42.2784 57.949 42.2784ZM57.949 46.8149H30.1561C29.1492 46.8149 28.3284 46.0015 28.3284 45.0003C28.3284 43.9991 29.1492 43.1872 30.1561 43.1872H57.949C58.9574 43.1872 59.7767 44.0006 59.7767 45.0003C59.7767 46 58.9574 46.8149 57.949 46.8149Z" fill="black"/>
<path d="M102 91.8197C102 91.9197 101.919 92 101.818 92H0.181544C0.0808555 92 0 91.9197 0 91.8197C0 91.7198 0.0808555 91.6395 0.181544 91.6395H101.818C101.919 91.6395 102 91.7198 102 91.8197Z" fill="#2E2E43"/>
<path d="M80.1043 81.6725L77.4873 83.3336L79.8604 87.0192L82.4774 85.3582L80.1043 81.6725Z" fill="#F3A3A6"/>
<path d="M71.8041 32.1268L68.4982 33.2477L68.4463 28.5082L71.4547 28.4749L71.8041 32.1268Z" fill="#F3A3A6"/>
<path d="M68.8323 29.8169C70.6581 29.8169 72.1382 28.3474 72.1382 26.5346C72.1382 24.7218 70.6581 23.2522 68.8323 23.2522C67.0065 23.2522 65.5264 24.7218 65.5264 26.5346C65.5264 28.3474 67.0065 29.8169 68.8323 29.8169Z" fill="#F3A3A6"/>
<path d="M69.7376 26.1998C69.1853 26.1892 68.8146 25.6394 68.5934 25.1335C68.3722 24.6306 68.1449 24.0489 67.6308 23.8444C67.2097 23.6778 66.4835 24.8411 66.1479 24.5382C65.7986 24.2216 66.1174 22.5675 66.482 22.2692C66.8466 21.9708 67.347 21.9071 67.8169 21.8784C68.9687 21.8132 70.1266 21.892 71.2586 22.1147C71.9573 22.251 72.6804 22.4615 73.1884 22.9568C73.8338 23.5854 74.0077 24.5427 74.0626 25.4379C74.1206 26.3543 74.0763 27.3146 73.637 28.1235C73.1961 28.9308 72.2639 29.5321 71.3593 29.3383C71.2632 28.852 71.3486 28.3537 71.3791 27.8569C71.4096 27.3631 71.3654 26.8299 71.0572 26.4391C70.749 26.0483 70.0992 25.8999 69.7498 26.2528" fill="#2F2E43"/>
<path d="M73.8168 27.2919C74.1448 27.048 74.5369 26.842 74.9442 26.8875C75.3851 26.9344 75.7604 27.2919 75.8778 27.716C75.9953 28.1401 75.8733 28.6097 75.6063 28.9611C75.3393 29.3125 74.9381 29.5458 74.5109 29.6654C74.2638 29.7351 73.9937 29.7639 73.7558 29.6654C73.4064 29.52 73.2142 29.0823 73.3469 28.7294" fill="#2F2E43"/>
<path d="M61.5145 58.3009C61.307 59.3809 61.7205 60.3624 62.4405 60.4912C63.1591 60.6199 63.9112 59.8474 64.1202 58.7674C64.2102 58.3373 64.1904 57.8919 64.0622 57.4693L66.6053 40.541L63.1789 39.9412L62.0515 57.1119C61.7754 57.4633 61.5908 57.8707 61.5145 58.3054V58.3009Z" fill="#F3A3A6"/>
<path d="M68.4375 31.0726L66.1034 31.0984C64.4558 31.3634 64.0179 32.2435 63.6625 33.8612C63.1178 36.3286 62.4222 39.617 62.5686 39.6625C62.8021 39.7382 66.7945 41.5498 68.8159 41.1014L68.4391 31.0726H68.4375Z" fill="#6C63FF"/>
<path d="M71.3041 84.8767L68.1982 84.9112L68.2475 89.2854L71.3533 89.2509L71.3041 84.8767Z" fill="#F3A3A6"/>
<path d="M65.2441 91.9682C64.9161 91.9727 64.6278 91.9682 64.4081 91.95C63.5812 91.8849 62.7895 91.2881 62.3882 90.9397C62.2082 90.7837 62.1487 90.5292 62.2387 90.3111C62.3028 90.1551 62.434 90.0354 62.5988 89.9854L64.7727 89.3432L68.277 86.9394L68.3166 87.009C68.3319 87.0348 68.6858 87.6513 68.8063 88.0693C68.8521 88.2284 68.843 88.3602 68.7758 88.4632C68.7301 88.5344 68.666 88.5768 68.6141 88.6025C68.6782 88.6676 68.8796 88.8009 69.4989 88.8918C70.399 89.0251 70.5806 88.0951 70.5867 88.0557L70.5928 88.0239L70.6187 88.0057C71.0444 87.7255 71.3052 87.5998 71.3968 87.6255C71.4547 87.6407 71.5478 87.6695 71.8316 90.1899C71.8575 90.2687 72.0436 90.8473 71.9277 91.4047C71.8026 92.0106 69.1404 91.8303 68.6095 91.7894C68.5943 91.791 66.6049 91.9545 65.2411 91.9682H65.2456H65.2441Z" fill="#2F2E43"/>
<path d="M76.712 91.2411C76.3474 91.2457 76.0117 91.2048 75.7722 91.1654C75.5373 91.126 75.3512 90.9427 75.3115 90.7095C75.281 90.5413 75.3313 90.3732 75.4427 90.246L76.9439 88.5586L78.6342 84.6779L78.7059 84.7158C78.7318 84.7294 79.3604 85.0672 79.6869 85.358C79.8104 85.4686 79.873 85.5852 79.873 85.7094C79.873 85.7942 79.8409 85.8639 79.8089 85.9109C79.8989 85.9321 80.14 85.9381 80.7136 85.6912C81.5481 85.3307 81.2063 84.4462 81.1911 84.4113L81.1789 84.381L81.1926 84.3538C81.4047 83.8933 81.5603 83.6479 81.6503 83.6207C81.7083 83.6055 81.8013 83.5767 83.3864 85.567C83.4505 85.6201 83.9173 86.0124 84.1156 86.5455C84.3307 87.1257 81.9798 88.3708 81.5038 88.6146C81.4901 88.6267 79.0324 90.4398 78.0225 90.9594C77.6212 91.1654 77.1437 91.2336 76.7089 91.2366L76.7135 91.2411H76.712Z" fill="#2F2E43"/>
<path d="M73.1757 48.2614L64.48 48.3569L63.7812 56.3969L67.5662 86.0366L72.0056 85.9866L70.0392 68.8659L77.4138 84.2629L81.3284 81.4758L75.5434 67.0892C75.5434 67.0892 77.4123 54.4808 75.7982 51.3636C74.1857 48.2463 73.1773 48.2569 73.1773 48.2569V48.2614H73.1757Z" fill="#2F2E43"/>
<path d="M77.5054 48.7037L63.6943 48.8567L67.6395 31.0832L73.6579 31.015L77.5054 48.7037Z" fill="#6C63FF"/>
<path d="M78.8537 58.1101C79.0856 59.187 78.6935 60.1761 77.978 60.32C77.261 60.4654 76.4921 59.7096 76.2618 58.6326C76.1626 58.204 76.1717 57.7586 76.2892 57.333L73.3662 40.4638L76.7774 39.7882L78.2892 56.9316C78.573 57.277 78.7667 57.6814 78.8537 58.1131V58.1101Z" fill="#F3A3A6"/>
<path d="M71.3249 31.0408L73.659 31.015C75.3112 31.2453 75.7689 32.1147 76.1625 33.7248C76.762 36.1802 77.5294 39.4504 77.386 39.5004C77.1526 39.5792 73.2044 41.4786 71.1738 41.0757L71.3279 31.0408H71.3249Z" fill="#6C63FF"/>
</g>
<defs>
<clipPath id="clip0_2091_2727">
<rect width="102" height="92" fill="white"/>
</clipPath>
</defs>
</svg>
