<svg width="14" height="12" viewBox="0 0 14 12" fill="none" xmlns="http://www.w3.org/2000/svg">
<path d="M12.8024 4.17237L9.08318 3.63184L7.42058 0.261236C7.37517 0.168951 7.30047 0.0942438 7.20818 0.0488336C6.97674 -0.0654243 6.69549 0.0297906 6.57976 0.261236L4.91716 3.63184L1.19793 4.17237C1.09539 4.18702 1.00164 4.23536 0.92986 4.3086C0.843085 4.39779 0.795268 4.51778 0.796916 4.64221C0.798564 4.76664 0.849542 4.88532 0.938649 4.97218L3.62957 7.59572L2.99382 11.3003C2.97892 11.3865 2.98845 11.4751 3.02135 11.5561C3.05425 11.6372 3.1092 11.7074 3.17996 11.7588C3.25072 11.8102 3.33447 11.8407 3.42171 11.8469C3.50894 11.8531 3.59617 11.8348 3.67351 11.794L7.00017 10.0449L10.3268 11.794C10.4177 11.8423 10.5231 11.8584 10.6242 11.8408C10.8791 11.7969 11.0505 11.5552 11.0065 11.3003L10.3708 7.59572L13.0617 4.97218C13.1349 4.9004 13.1833 4.80665 13.1979 4.70411C13.2375 4.44776 13.0588 4.21046 12.8024 4.17237Z" fill="#FFB24D"/>
</svg>
